<?xml version="1.0" standalone="no"?>
<!DOCTYPE svg PUBLIC "-//W3C//DTD SVG 20010904//EN"
 "http://www.w3.org/TR/2001/REC-SVG-20010904/DTD/svg10.dtd">
<svg version="1.0" xmlns="http://www.w3.org/2000/svg"
 width="80.000000pt" height="80.000000pt" viewBox="0 0 80.000000 80.000000"
 preserveAspectRatio="xMidYMid meet">
<metadata>
Created by potrace 1.11, written by Peter Selinger 2001-2013
</metadata>
<g transform="translate(0.000000,80.000000) scale(0.100000,-0.100000)"
fill="#000000" stroke="none">
<path d="M285 782 c-28 -10 -70 -29 -95 -44 -51 -30 -114 -91 -90 -88 36 5 50
-1 50 -21 0 -21 1 -21 28 -4 15 10 31 24 35 32 5 7 12 11 18 8 5 -4 9 -2 9 3
0 24 196 60 216 39 8 -8 64 20 64 32 0 5 -8 19 -18 31 -15 19 -30 23 -93 26
-51 2 -89 -2 -124 -14z"/>
<path d="M553 744 c4 -23 1 -33 -15 -43 -19 -12 -18 -14 24 -40 75 -48 134
-137 140 -212 1 -16 13 -39 25 -51 l24 -22 23 25 c16 17 21 31 16 44 -4 11 -5
24 -3 28 3 4 -1 14 -7 22 -7 8 -10 15 -7 15 12 0 -37 97 -68 135 -18 22 -61
60 -95 84 l-63 45 6 -30z"/>
<path d="M95 622 c-34 -7 -52 -31 -75 -102 -30 -94 -23 -212 17 -287 20 -38
29 -41 36 -13 4 16 11 20 31 16 15 -3 24 -1 22 3 -7 11 -28 63 -33 81 -13 46
-4 158 16 203 31 71 26 107 -14 99z"/>
<path d="M414 608 c-4 -7 -8 -57 -8 -112 l-1 -101 -97 0 c-99 -1 -124 -9 -108
-34 6 -11 35 -15 120 -16 61 -1 114 3 116 7 3 5 9 6 13 4 12 -8 8 248 -4 256
-14 11 -23 10 -31 -4z"/>
<path d="M95 192 c-12 -31 -3 -51 41 -92 72 -66 142 -93 246 -94 88 -1 117 8
85 26 -13 7 -17 17 -13 32 5 22 3 23 -47 22 -76 -2 -158 29 -231 88 -40 33
-72 40 -81 18z"/>
</g>
</svg>
